<svg width="172" height="27" viewBox="0 0 172 27" fill="none" xmlns="http://www.w3.org/2000/svg">
<g clip-path="url(#clip0_3_2894)">
<path fill-rule="evenodd" clip-rule="evenodd" d="M24.9801 2.83869V3.08677C25.6597 3.23732 26.2545 3.64261 26.6401 4.218C27.0201 4.78362 27.2101 5.56754 27.2101 6.57969C27.2101 7.64146 27.0401 8.71316 26.7101 9.80469C26.3323 11.0097 25.8539 12.1814 25.2801 13.3075L24.6001 14.796L21.2601 6.75831C20.9779 6.0828 20.7928 5.37131 20.7101 4.64469C20.7101 3.77146 21.1901 3.25546 22.1701 3.08677V2.83869H12.2001V3.08677C12.5801 3.15623 12.9101 3.27531 13.1901 3.42416C13.4601 3.58292 13.7301 3.85085 13.9801 4.23785C14.2201 4.62485 14.5001 5.19046 14.8101 5.93469L16.4101 9.636L13.5901 15.2128L9.39008 5.52785C9.27812 5.34123 9.19074 5.14114 9.13008 4.93246C9.08525 4.77416 9.06171 4.61066 9.06008 4.44623C9.06008 4.15846 9.16008 3.89054 9.36008 3.65239C9.56008 3.41423 9.86008 3.22569 10.2401 3.07685V2.82877H0.0800781V3.07685C0.880078 3.315 1.61008 3.77146 2.25008 4.42639C2.90008 5.08131 3.53008 6.09346 4.15008 7.443L10.6001 21.762H10.8801L16.6901 10.2512L21.6701 21.7521H21.9501L27.8701 9.03069C28.5054 7.58006 29.3038 6.20527 30.2501 4.93246C30.8489 4.1387 31.6307 3.49898 32.5301 3.06692V2.81885H24.9801V2.82877V2.83869Z" fill="#32302F"/>
<path d="M41.2601 15.699C40.6101 17.3264 39.1901 18.1401 36.9901 18.1401C36.3899 18.1707 35.7901 18.0732 35.2312 17.854C34.6722 17.6349 34.1672 17.2993 33.7501 16.8699C32.9901 16.0562 32.5901 14.8357 32.5501 13.2281H41.4501V13.0594C41.4501 11.9282 41.1501 10.9359 40.5701 10.0924C39.9718 9.23758 39.1581 8.5533 38.2101 8.10783C37.2101 7.64144 36.1101 7.40329 34.8701 7.40329C33.5988 7.38899 32.3451 7.69999 31.2301 8.30629C30.0947 8.91717 29.1524 9.82868 28.508 10.9394C27.8636 12.0501 27.5424 13.3164 27.5801 14.5975C27.5801 15.9371 27.8801 17.1279 28.4801 18.1599C29.078 19.1855 29.9502 20.0269 31.0001 20.5911C32.0701 21.1864 33.3001 21.4643 34.6701 21.4643C36.5101 21.4643 38.0101 20.9979 39.1901 20.0453C40.4555 18.9393 41.2935 17.4306 41.5601 15.7784L41.2601 15.699ZM33.1301 9.10013C33.5201 8.2269 34.0801 7.78037 34.8301 7.78037C35.0805 7.7755 35.3277 7.83738 35.5458 7.95955C35.7639 8.08173 35.945 8.25972 36.0701 8.47498C36.2001 8.67344 36.3101 8.9116 36.4101 9.1696C36.5001 9.43752 36.5701 9.79475 36.6101 10.2413C36.6601 10.6978 36.6801 11.2931 36.6801 12.0473V12.732H32.5601C32.5601 11.8984 32.6101 11.2038 32.7001 10.6481C32.8001 10.023 32.9501 9.50698 33.1301 9.10013ZM57.0701 19.2713C56.9809 19.3517 56.8694 19.4035 56.7501 19.4201L56.4401 19.44C56.2971 19.4493 56.1544 19.4167 56.0299 19.3461C55.9054 19.2755 55.8046 19.1701 55.7401 19.0431C55.6001 18.7751 55.5301 18.2492 55.5301 17.4554V11.0252C55.5301 9.73521 55.2501 8.81237 54.7001 8.2269C54.1501 7.63152 53.2701 7.34375 52.0601 7.34375C49.7212 7.38469 47.4187 7.92626 45.3101 8.93144C44.4413 9.30889 43.6511 9.84398 42.9801 10.5092C42.4928 10.9882 42.2099 11.6349 42.1901 12.3152C42.1901 12.8907 42.3901 13.3373 42.7701 13.6747C43.1601 14.022 43.6701 14.1907 44.2901 14.1907C44.6304 14.1875 44.9664 14.1155 45.2777 13.979C45.5889 13.8425 45.8688 13.6444 46.1001 13.3968C46.3766 13.1024 46.5901 12.7553 46.7276 12.3767C46.8651 11.9981 46.9238 11.5957 46.9001 11.1939V10.7275C46.9001 9.88406 47.1001 9.24898 47.4701 8.81236C47.8401 8.38567 48.3101 8.16737 48.8601 8.16737C49.3001 8.16737 49.6601 8.27652 49.9501 8.4849C50.2301 8.69329 50.4501 9.06044 50.5801 9.57644C50.7201 10.0825 50.7801 10.797 50.7801 11.7198V13.119C49.3901 13.5457 48.1601 13.9525 47.0801 14.3693C45.8601 14.8357 44.8401 15.2921 44.0401 15.7585C42.7701 16.4631 42.1401 17.3859 42.1401 18.4973C42.1401 19.3804 42.4901 20.085 43.2001 20.6109C43.9001 21.1468 44.8301 21.4047 45.9701 21.4047C46.9837 21.4263 47.9879 21.2087 48.9001 20.7697C49.6001 20.4224 50.2501 19.8766 50.8501 19.1125C50.9901 19.8865 51.2501 20.4422 51.6501 20.7994C52.1548 21.2373 52.8104 21.4649 53.4801 21.4345C54.213 21.4429 54.9359 21.2653 55.5801 20.9185C56.2327 20.5602 56.7964 20.0619 57.2301 19.4598L57.0701 19.2713ZM49.1901 19.5194C48.1401 19.5194 47.6201 18.8049 47.6201 17.376C47.6201 16.4234 47.9101 15.6394 48.4801 15.0242C48.9601 14.4983 49.7401 14.0319 50.7901 13.6151V17.5844C50.7901 18.1996 50.6401 18.6759 50.3501 19.0034C50.0501 19.3507 49.6701 19.5194 49.1901 19.5194Z" fill="#32302F"/>
<path fill-rule="evenodd" clip-rule="evenodd" d="M57.0701 20.7498C57.6001 20.7101 57.9901 20.5117 58.2401 20.1346C58.4901 19.7575 58.6101 19.0033 58.6101 17.8622V6.62927C58.6101 5.33927 58.4401 4.42634 58.0901 3.8905C57.938 3.63486 57.7194 3.42448 57.4573 3.28134C57.1952 3.1382 56.8991 3.06756 56.6001 3.0768V2.77911C58.8818 2.27627 61.135 1.65355 63.3501 0.913574V18.4179C63.3501 19.311 63.4501 19.9063 63.6401 20.2239C63.8401 20.5414 64.1701 20.72 64.6401 20.7498V21.0475H57.0701V20.7498ZM67.0401 20.7002C66.4901 20.1842 66.2101 19.311 66.2101 18.0904V8.88181H64.1701L64.1201 8.6635C64.8401 8.33604 65.6001 7.85973 66.4201 7.23457C68.1046 5.95218 69.5933 4.43478 70.8401 2.7295L71.0901 2.8188V7.73073H74.1701L73.5101 8.89173H71.1001V17.237C71.1001 18.0507 71.2201 18.6263 71.4601 18.9736C71.7001 19.3209 72.0501 19.4995 72.5101 19.4995C72.7301 19.4995 72.9501 19.4697 73.1801 19.4102C73.4101 19.3606 73.6201 19.2613 73.8001 19.1323L73.9601 19.3606C73.1601 20.0353 72.3901 20.5513 71.6801 20.9185C70.9601 21.2857 70.2101 21.4742 69.4201 21.4742C68.5594 21.5266 67.7112 21.2496 67.0501 20.7002H67.0401Z" fill="#32302F"/>
<path fill-rule="evenodd" clip-rule="evenodd" d="M88.76 20.1744C88.5391 19.52 88.4508 18.8286 88.5 18.1402V11.1444C88.5 8.62397 87.47 7.35381 85.42 7.35381C84.82 7.35381 84.29 7.42327 83.8 7.57212C83.2308 7.75859 82.6918 8.02599 82.2 8.36597C81.66 8.73312 81 9.2392 80.2 9.8842V0.923658C77.9872 1.66038 75.7375 2.28305 73.46 2.7892V3.08689C74.1 3.08689 74.6 3.36474 74.95 3.90058C75.3 4.44635 75.47 5.35927 75.47 6.63935V17.5944C75.47 18.815 75.34 19.6386 75.07 20.0653C74.81 20.492 74.39 20.7103 73.82 20.7599V21.0576H81.48V20.7599C81.02 20.7103 80.69 20.5217 80.5 20.1744C80.2569 19.525 80.1579 18.8311 80.21 18.1402V10.3605C80.62 10.0231 80.99 9.76512 81.31 9.6262C81.68 9.4575 82.01 9.37812 82.31 9.37812C82.78 9.37812 83.15 9.57658 83.42 9.9735C83.69 10.3704 83.82 11.0452 83.82 12.0177V18.1104C83.82 18.8249 83.78 19.3707 83.71 19.7378C83.64 20.095 83.51 20.353 83.34 20.492C83.16 20.621 82.9 20.7103 82.55 20.75V21.0477H89.71V20.75C89.25 20.7202 88.94 20.5217 88.76 20.1744ZM94.84 21.266L93.04 20.9187C92.5699 20.817 92.091 20.7605 91.61 20.75C91.2062 20.7467 90.8078 20.8421 90.45 21.0278V14.8755L90.73 14.816C91.5165 16.0846 92.399 17.2921 93.37 18.428C94.17 19.321 94.9 19.9561 95.57 20.3233C96.26 20.7003 96.93 20.8889 97.59 20.8889C98.23 20.8889 98.7 20.75 98.99 20.4622C99.29 20.1744 99.43 19.7973 99.43 19.321C99.43 18.7356 99.23 18.2692 98.84 17.9318C98.2063 17.4443 97.4971 17.0623 96.74 16.8006L94.78 16.0266C93.5661 15.6141 92.4451 14.9703 91.48 14.1313C91.1703 13.8172 90.9274 13.4445 90.766 13.0353C90.6045 12.6262 90.5276 12.189 90.54 11.7497C90.54 10.9162 90.75 10.1819 91.19 9.51704C91.6512 8.83073 92.295 8.28462 93.05 7.93927C93.85 7.54235 94.82 7.34389 95.94 7.34389C96.53 7.34389 97.11 7.3935 97.69 7.48281C98.27 7.58204 98.79 7.66143 99.25 7.75073C99.71 7.83012 100.05 7.86981 100.29 7.86981C100.548 7.88303 100.805 7.83542 101.04 7.73089L101.42 12.7619L101.17 12.8214C100.348 11.4267 99.3272 10.1567 98.14 9.05066C97.4309 8.35601 96.4941 7.93699 95.5 7.86981C94.95 7.86981 94.5 8.00873 94.15 8.28658C93.8 8.58427 93.63 8.96135 93.63 9.4575C93.63 9.99335 93.8 10.43 94.16 10.7773C94.52 11.1246 95.12 11.4421 95.96 11.71L98.28 12.484C99.4353 12.7967 100.505 13.363 101.41 14.1412C102.04 14.7763 102.36 15.58 102.36 16.5426C102.392 17.2139 102.271 17.8838 102.007 18.5023C101.742 19.1209 101.339 19.6721 100.83 20.1149C99.6866 21.0359 98.2409 21.5058 96.77 21.4347C96.1227 21.4301 95.4769 21.3703 94.84 21.256V21.266ZM106.18 6.4905C106.558 6.49316 106.934 6.42098 107.284 6.27818C107.634 6.13537 107.952 5.92481 108.219 5.65877C108.486 5.39273 108.697 5.07655 108.84 4.72868C108.983 4.38081 109.054 4.00822 109.05 3.63266C109.05 2.88843 108.79 2.22358 108.26 1.65797C107.996 1.3751 107.673 1.15234 107.314 1.00502C106.955 0.857706 106.568 0.789324 106.18 0.804581C105.68 0.804581 105.22 0.943504 104.79 1.2015C104.36 1.46943 104.01 1.81673 103.74 2.25335C103.415 2.78715 103.282 3.4149 103.364 4.03344C103.445 4.65198 103.737 5.22451 104.19 5.65697C104.77 6.21266 105.43 6.4905 106.19 6.4905H106.18Z" fill="#32302F"/>
<path fill-rule="evenodd" clip-rule="evenodd" d="M133.69 20.234C133.49 19.9164 133.4 19.321 133.4 18.418V11.1444C133.4 8.62395 132.37 7.3538 130.32 7.3538C129.75 7.3538 129.19 7.44311 128.65 7.62172C128.11 7.79041 127.55 8.06826 126.95 8.45526C126.43 8.79264 125.85 9.23918 125.19 9.77503C125.119 9.14408 124.817 8.56113 124.34 8.13772C123.714 7.60057 122.906 7.32022 122.08 7.3538C121.18 7.3538 120.29 7.56218 119.41 7.98888C118.61 8.36595 117.82 8.94149 117.01 9.70557V7.34388C115.555 7.9013 114.077 8.39789 112.58 8.83234L110.63 9.37811V9.65595C111.23 9.70557 111.66 9.95364 111.91 10.3903C112.16 10.8269 112.28 11.6803 112.28 12.9504V18.4081C112.28 19.3012 112.12 19.8966 111.78 20.2439C111.45 20.5813 111.05 20.75 110.57 20.75C110 20.75 109.57 20.5813 109.29 20.2439C109 19.9065 108.86 19.2913 108.86 18.418V7.27441C107.84 7.68126 106.76 8.04841 105.61 8.39572C104.47 8.73311 103.31 9.05065 102.11 9.33841V9.61626C102.85 9.66588 103.37 9.96357 103.68 10.5093C104 11.0452 104.15 11.9482 104.15 13.1886V17.5944C104.15 18.7653 104.02 19.579 103.76 20.0256C103.51 20.4721 103.09 20.7202 102.5 20.75V21.0476H118.28V20.75C118.083 20.7351 117.893 20.6731 117.726 20.5694C117.559 20.4658 117.419 20.3234 117.32 20.1546C117.078 19.5983 116.975 18.9924 117.02 18.3883V10.2513C117.35 9.97349 117.65 9.75518 117.92 9.63611C118.243 9.48817 118.594 9.41036 118.95 9.40788C119.48 9.40788 119.88 9.58649 120.14 9.96357C120.39 10.3406 120.52 11.0253 120.52 12.0176V18.3883C120.52 19.2813 120.42 19.8866 120.23 20.1943C120.04 20.5118 119.73 20.6904 119.28 20.75V21.0476H126.5V20.75C126.02 20.6904 125.69 20.5217 125.5 20.224C125.32 19.9263 125.23 19.321 125.23 18.3883V10.2513C125.58 9.95365 125.89 9.72541 126.17 9.55672C126.483 9.35577 126.847 9.24578 127.22 9.23918C127.69 9.23918 128.07 9.43764 128.33 9.85441C128.6 10.2712 128.73 10.9856 128.73 12.0176V18.3883C128.73 19.3409 128.65 19.9561 128.48 20.2439C128.32 20.5316 127.98 20.6904 127.47 20.75V21.0476H134.77V20.75C134.24 20.7202 133.88 20.5515 133.69 20.234Z" fill="#32302F"/>
<path d="M149.53 11.2238C149.363 10.4498 149.021 9.72353 148.53 9.10025C148.106 8.54085 147.556 8.08786 146.924 7.77766C146.292 7.46745 145.595 7.30868 144.89 7.3141C144.135 7.30985 143.389 7.46547 142.7 7.77056C142.11 8.03848 141.49 8.43541 140.84 8.96133V7.32402C138.632 8.10704 136.389 8.7924 134.12 9.3781V9.62618C134.63 9.67579 135.03 9.80479 135.32 10.0132C135.6 10.2116 135.81 10.5391 135.94 11.0055C136.07 11.4619 136.13 12.097 136.13 12.9206V22.2086C136.13 23.2009 136.04 23.9551 135.88 24.4909C135.72 25.0169 135.47 25.384 135.14 25.6023C134.764 25.8296 134.339 25.9655 133.9 25.9993V26.2969H142.9V25.9993C142.13 25.9298 141.6 25.7016 141.3 25.3146C140.99 24.9276 140.84 24.2032 140.84 23.1414V20.6209C141.2 20.869 141.54 21.0576 141.89 21.1667C143.231 21.5286 144.656 21.4379 145.94 20.9087C146.706 20.587 147.392 20.1026 147.95 19.4897C148.57 18.8025 149.046 17.9997 149.35 17.128C149.693 16.1491 149.863 15.1182 149.85 14.0816C149.85 13.0298 149.75 12.0772 149.53 11.2238ZM144.06 19.192C143.55 20.1248 142.91 20.5813 142.16 20.5813C141.867 20.5908 141.576 20.533 141.31 20.4126C141.142 20.3241 140.984 20.2176 140.84 20.095V9.51702C141.45 9.04071 141.98 8.80256 142.41 8.80256C143.11 8.80256 143.68 9.26895 144.14 10.1918C144.6 11.1146 144.84 12.5733 144.84 14.548C144.84 16.7013 144.57 18.2493 144.06 19.192Z" fill="#32302F"/>
<path fill-rule="evenodd" clip-rule="evenodd" d="M149.7 20.7498C150.24 20.7101 150.63 20.5116 150.88 20.1346C151.13 19.7575 151.25 19.0033 151.25 17.8622V6.62927C151.25 5.33927 151.08 4.42634 150.73 3.8905C150.578 3.63486 150.36 3.42448 150.097 3.28134C149.835 3.1382 149.539 3.06756 149.24 3.0768V2.77911C150.392 2.51294 151.539 2.22512 152.68 1.9158C153.86 1.58834 154.96 1.26088 155.98 0.913574V18.4179C155.98 19.311 156.08 19.9063 156.28 20.2239C156.47 20.5414 156.81 20.72 157.28 20.7498V21.0475H149.71V20.7498H149.7Z" fill="#32302F"/>
<path d="M170.83 15.699C170.19 17.3264 168.77 18.1401 166.56 18.1401C165.961 18.1693 165.364 18.071 164.806 17.852C164.249 17.6329 163.746 17.298 163.33 16.8699C162.57 16.0562 162.17 14.8357 162.13 13.2282H171.03V13.0595C171.03 11.9282 170.73 10.9359 170.15 10.0925C169.549 9.23627 168.732 8.55187 167.78 8.10785C166.737 7.6284 165.599 7.38762 164.45 7.40331C163.13 7.40331 161.91 7.701 160.8 8.30631C159.665 8.91719 158.722 9.8287 158.078 10.9394C157.433 12.0501 157.112 13.3165 157.15 14.5975C157.15 15.9372 157.45 17.1279 158.06 18.1599C158.655 19.1842 159.524 20.0255 160.57 20.5911C161.64 21.1865 162.86 21.4643 164.24 21.4643C166.07 21.4643 167.58 20.9979 168.75 20.0453C170.015 18.9393 170.853 17.4307 171.12 15.7784L170.83 15.699ZM162.71 9.10015C163.09 8.22692 163.66 7.78039 164.41 7.78039C164.67 7.78039 164.91 7.83992 165.11 7.94908C165.33 8.05823 165.51 8.23685 165.65 8.475C165.78 8.67346 165.89 8.91162 165.98 9.16962C166.08 9.43754 166.15 9.79477 166.19 10.2413C166.24 10.6978 166.26 11.2932 166.26 12.0473V12.732H162.13C162.14 11.8985 162.19 11.2038 162.28 10.6482C162.38 10.023 162.53 9.507 162.71 9.10015Z" fill="#32302F"/>
</g>
<defs>
<clipPath id="clip0_3_2894">
<rect width="172" height="25.8" fill="white" transform="translate(0 0.725098)"/>
</clipPath>
</defs>
</svg>
